<?xml version="1.0" encoding="utf-8" standalone="no"?>
<!DOCTYPE svg PUBLIC "-//W3C//DTD SVG 1.1//EN"
  "http://www.w3.org/Graphics/SVG/1.1/DTD/svg11.dtd">
<!-- Created with matplotlib (https://matplotlib.org/) -->
<svg height="324pt" version="1.1" viewBox="0 0 576 324" width="576pt" xmlns="http://www.w3.org/2000/svg" xmlns:xlink="http://www.w3.org/1999/xlink">
 <defs>
  <style type="text/css">
*{stroke-linecap:butt;stroke-linejoin:round;}
  </style>
 </defs>
 <g id="figure_1">
  <g id="patch_1">
   <path d="M 0 324 
L 576 324 
L 576 0 
L 0 0 
z
" style="fill:#ffffff;"/>
  </g>
  <g id="axes_1">
   <g id="patch_2">
    <path d="M 72 283.5 
L 518.4 283.5 
L 518.4 38.88 
L 72 38.88 
z
" style="fill:#e5e5e5;"/>
   </g>
   <g id="matplotlib.axis_1">
    <g id="xtick_1">
     <g id="line2d_1">
      <path clip-path="url(#pc1f82c93ff)" d="M 92.290909 283.5 
L 92.290909 38.88 
" style="fill:none;stroke:#ffffff;stroke-linecap:square;stroke-width:0.8;"/>
     </g>
     <g id="line2d_2">
      <defs>
       <path d="M 0 0 
L 0 3.5 
" id="m467496f6b0" style="stroke:#555555;stroke-width:0.8;"/>
      </defs>
      <g>
       <use style="fill:#555555;stroke:#555555;stroke-width:0.8;" x="92.290909" xlink:href="#m467496f6b0" y="283.5"/>
      </g>
     </g>
     <g id="text_1">
      <!-- 0 -->
      <defs>
       <path d="M 31.78125 66.40625 
Q 24.171875 66.40625 20.328125 58.90625 
Q 16.5 51.421875 16.5 36.375 
Q 16.5 21.390625 20.328125 13.890625 
Q 24.171875 6.390625 31.78125 6.390625 
Q 39.453125 6.390625 43.28125 13.890625 
Q 47.125 21.390625 47.125 36.375 
Q 47.125 51.421875 43.28125 58.90625 
Q 39.453125 66.40625 31.78125 66.40625 
z
M 31.78125 74.21875 
Q 44.046875 74.21875 50.515625 64.515625 
Q 56.984375 54.828125 56.984375 36.375 
Q 56.984375 17.96875 50.515625 8.265625 
Q 44.046875 -1.421875 31.78125 -1.421875 
Q 19.53125 -1.421875 13.0625 8.265625 
Q 6.59375 17.96875 6.59375 36.375 
Q 6.59375 54.828125 13.0625 64.515625 
Q 19.53125 74.21875 31.78125 74.21875 
z
" id="DejaVuSans-48"/>
      </defs>
      <g style="fill:#555555;" transform="translate(89.109659 298.098437)scale(0.1 -0.1)">
       <use xlink:href="#DejaVuSans-48"/>
      </g>
     </g>
    </g>
    <g id="xtick_2">
     <g id="line2d_3">
      <path clip-path="url(#pc1f82c93ff)" d="M 159.927273 283.5 
L 159.927273 38.88 
" style="fill:none;stroke:#ffffff;stroke-linecap:square;stroke-width:0.8;"/>
     </g>
     <g id="line2d_4">
      <g>
       <use style="fill:#555555;stroke:#555555;stroke-width:0.8;" x="159.927273" xlink:href="#m467496f6b0" y="283.5"/>
      </g>
     </g>
     <g id="text_2">
      <!-- 10 -->
      <defs>
       <path d="M 12.40625 8.296875 
L 28.515625 8.296875 
L 28.515625 63.921875 
L 10.984375 60.40625 
L 10.984375 69.390625 
L 28.421875 72.90625 
L 38.28125 72.90625 
L 38.28125 8.296875 
L 54.390625 8.296875 
L 54.390625 0 
L 12.40625 0 
z
" id="DejaVuSans-49"/>
      </defs>
      <g style="fill:#555555;" transform="translate(153.564773 298.098437)scale(0.1 -0.1)">
       <use xlink:href="#DejaVuSans-49"/>
       <use x="63.623047" xlink:href="#DejaVuSans-48"/>
      </g>
     </g>
    </g>
    <g id="xtick_3">
     <g id="line2d_5">
      <path clip-path="url(#pc1f82c93ff)" d="M 227.563636 283.5 
L 227.563636 38.88 
" style="fill:none;stroke:#ffffff;stroke-linecap:square;stroke-width:0.8;"/>
     </g>
     <g id="line2d_6">
      <g>
       <use style="fill:#555555;stroke:#555555;stroke-width:0.8;" x="227.563636" xlink:href="#m467496f6b0" y="283.5"/>
      </g>
     </g>
     <g id="text_3">
      <!-- 20 -->
      <defs>
       <path d="M 19.1875 8.296875 
L 53.609375 8.296875 
L 53.609375 0 
L 7.328125 0 
L 7.328125 8.296875 
Q 12.9375 14.109375 22.625 23.890625 
Q 32.328125 33.6875 34.8125 36.53125 
Q 39.546875 41.84375 41.421875 45.53125 
Q 43.3125 49.21875 43.3125 52.78125 
Q 43.3125 58.59375 39.234375 62.25 
Q 35.15625 65.921875 28.609375 65.921875 
Q 23.96875 65.921875 18.8125 64.3125 
Q 13.671875 62.703125 7.8125 59.421875 
L 7.8125 69.390625 
Q 13.765625 71.78125 18.9375 73 
Q 24.125 74.21875 28.421875 74.21875 
Q 39.75 74.21875 46.484375 68.546875 
Q 53.21875 62.890625 53.21875 53.421875 
Q 53.21875 48.921875 51.53125 44.890625 
Q 49.859375 40.875 45.40625 35.40625 
Q 44.1875 33.984375 37.640625 27.21875 
Q 31.109375 20.453125 19.1875 8.296875 
z
" id="DejaVuSans-50"/>
      </defs>
      <g style="fill:#555555;" transform="translate(221.201136 298.098437)scale(0.1 -0.1)">
       <use xlink:href="#DejaVuSans-50"/>
       <use x="63.623047" xlink:href="#DejaVuSans-48"/>
      </g>
     </g>
    </g>
    <g id="xtick_4">
     <g id="line2d_7">
      <path clip-path="url(#pc1f82c93ff)" d="M 295.2 283.5 
L 295.2 38.88 
" style="fill:none;stroke:#ffffff;stroke-linecap:square;stroke-width:0.8;"/>
     </g>
     <g id="line2d_8">
      <g>
       <use style="fill:#555555;stroke:#555555;stroke-width:0.8;" x="295.2" xlink:href="#m467496f6b0" y="283.5"/>
      </g>
     </g>
     <g id="text_4">
      <!-- 30 -->
      <defs>
       <path d="M 40.578125 39.3125 
Q 47.65625 37.796875 51.625 33 
Q 55.609375 28.21875 55.609375 21.1875 
Q 55.609375 10.40625 48.1875 4.484375 
Q 40.765625 -1.421875 27.09375 -1.421875 
Q 22.515625 -1.421875 17.65625 -0.515625 
Q 12.796875 0.390625 7.625 2.203125 
L 7.625 11.71875 
Q 11.71875 9.328125 16.59375 8.109375 
Q 21.484375 6.890625 26.8125 6.890625 
Q 36.078125 6.890625 40.9375 10.546875 
Q 45.796875 14.203125 45.796875 21.1875 
Q 45.796875 27.640625 41.28125 31.265625 
Q 36.765625 34.90625 28.71875 34.90625 
L 20.21875 34.90625 
L 20.21875 43.015625 
L 29.109375 43.015625 
Q 36.375 43.015625 40.234375 45.921875 
Q 44.09375 48.828125 44.09375 54.296875 
Q 44.09375 59.90625 40.109375 62.90625 
Q 36.140625 65.921875 28.71875 65.921875 
Q 24.65625 65.921875 20.015625 65.03125 
Q 15.375 64.15625 9.8125 62.3125 
L 9.8125 71.09375 
Q 15.4375 72.65625 20.34375 73.4375 
Q 25.25 74.21875 29.59375 74.21875 
Q 40.828125 74.21875 47.359375 69.109375 
Q 53.90625 64.015625 53.90625 55.328125 
Q 53.90625 49.265625 50.4375 45.09375 
Q 46.96875 40.921875 40.578125 39.3125 
z
" id="DejaVuSans-51"/>
      </defs>
      <g style="fill:#555555;" transform="translate(288.8375 298.098437)scale(0.1 -0.1)">
       <use xlink:href="#DejaVuSans-51"/>
       <use x="63.623047" xlink:href="#DejaVuSans-48"/>
      </g>
     </g>
    </g>
    <g id="xtick_5">
     <g id="line2d_9">
      <path clip-path="url(#pc1f82c93ff)" d="M 362.836364 283.5 
L 362.836364 38.88 
" style="fill:none;stroke:#ffffff;stroke-linecap:square;stroke-width:0.8;"/>
     </g>
     <g id="line2d_10">
      <g>
       <use style="fill:#555555;stroke:#555555;stroke-width:0.8;" x="362.836364" xlink:href="#m467496f6b0" y="283.5"/>
      </g>
     </g>
     <g id="text_5">
      <!-- 40 -->
      <defs>
       <path d="M 37.796875 64.3125 
L 12.890625 25.390625 
L 37.796875 25.390625 
z
M 35.203125 72.90625 
L 47.609375 72.90625 
L 47.609375 25.390625 
L 58.015625 25.390625 
L 58.015625 17.1875 
L 47.609375 17.1875 
L 47.609375 0 
L 37.796875 0 
L 37.796875 17.1875 
L 4.890625 17.1875 
L 4.890625 26.703125 
z
" id="DejaVuSans-52"/>
      </defs>
      <g style="fill:#555555;" transform="translate(356.473864 298.098437)scale(0.1 -0.1)">
       <use xlink:href="#DejaVuSans-52"/>
       <use x="63.623047" xlink:href="#DejaVuSans-48"/>
      </g>
     </g>
    </g>
    <g id="xtick_6">
     <g id="line2d_11">
      <path clip-path="url(#pc1f82c93ff)" d="M 430.472727 283.5 
L 430.472727 38.88 
" style="fill:none;stroke:#ffffff;stroke-linecap:square;stroke-width:0.8;"/>
     </g>
     <g id="line2d_12">
      <g>
       <use style="fill:#555555;stroke:#555555;stroke-width:0.8;" x="430.472727" xlink:href="#m467496f6b0" y="283.5"/>
      </g>
     </g>
     <g id="text_6">
      <!-- 50 -->
      <defs>
       <path d="M 10.796875 72.90625 
L 49.515625 72.90625 
L 49.515625 64.59375 
L 19.828125 64.59375 
L 19.828125 46.734375 
Q 21.96875 47.46875 24.109375 47.828125 
Q 26.265625 48.1875 28.421875 48.1875 
Q 40.625 48.1875 47.75 41.5 
Q 54.890625 34.8125 54.890625 23.390625 
Q 54.890625 11.625 47.5625 5.09375 
Q 40.234375 -1.421875 26.90625 -1.421875 
Q 22.3125 -1.421875 17.546875 -0.640625 
Q 12.796875 0.140625 7.71875 1.703125 
L 7.71875 11.625 
Q 12.109375 9.234375 16.796875 8.0625 
Q 21.484375 6.890625 26.703125 6.890625 
Q 35.15625 6.890625 40.078125 11.328125 
Q 45.015625 15.765625 45.015625 23.390625 
Q 45.015625 31 40.078125 35.4375 
Q 35.15625 39.890625 26.703125 39.890625 
Q 22.75 39.890625 18.8125 39.015625 
Q 14.890625 38.140625 10.796875 36.28125 
z
" id="DejaVuSans-53"/>
      </defs>
      <g style="fill:#555555;" transform="translate(424.110227 298.098437)scale(0.1 -0.1)">
       <use xlink:href="#DejaVuSans-53"/>
       <use x="63.623047" xlink:href="#DejaVuSans-48"/>
      </g>
     </g>
    </g>
    <g id="xtick_7">
     <g id="line2d_13">
      <path clip-path="url(#pc1f82c93ff)" d="M 498.109091 283.5 
L 498.109091 38.88 
" style="fill:none;stroke:#ffffff;stroke-linecap:square;stroke-width:0.8;"/>
     </g>
     <g id="line2d_14">
      <g>
       <use style="fill:#555555;stroke:#555555;stroke-width:0.8;" x="498.109091" xlink:href="#m467496f6b0" y="283.5"/>
      </g>
     </g>
     <g id="text_7">
      <!-- 60 -->
      <defs>
       <path d="M 33.015625 40.375 
Q 26.375 40.375 22.484375 35.828125 
Q 18.609375 31.296875 18.609375 23.390625 
Q 18.609375 15.53125 22.484375 10.953125 
Q 26.375 6.390625 33.015625 6.390625 
Q 39.65625 6.390625 43.53125 10.953125 
Q 47.40625 15.53125 47.40625 23.390625 
Q 47.40625 31.296875 43.53125 35.828125 
Q 39.65625 40.375 33.015625 40.375 
z
M 52.59375 71.296875 
L 52.59375 62.3125 
Q 48.875 64.0625 45.09375 64.984375 
Q 41.3125 65.921875 37.59375 65.921875 
Q 27.828125 65.921875 22.671875 59.328125 
Q 17.53125 52.734375 16.796875 39.40625 
Q 19.671875 43.65625 24.015625 45.921875 
Q 28.375 48.1875 33.59375 48.1875 
Q 44.578125 48.1875 50.953125 41.515625 
Q 57.328125 34.859375 57.328125 23.390625 
Q 57.328125 12.15625 50.6875 5.359375 
Q 44.046875 -1.421875 33.015625 -1.421875 
Q 20.359375 -1.421875 13.671875 8.265625 
Q 6.984375 17.96875 6.984375 36.375 
Q 6.984375 53.65625 15.1875 63.9375 
Q 23.390625 74.21875 37.203125 74.21875 
Q 40.921875 74.21875 44.703125 73.484375 
Q 48.484375 72.75 52.59375 71.296875 
z
" id="DejaVuSans-54"/>
      </defs>
      <g style="fill:#555555;" transform="translate(491.746591 298.098437)scale(0.1 -0.1)">
       <use xlink:href="#DejaVuSans-54"/>
       <use x="63.623047" xlink:href="#DejaVuSans-48"/>
      </g>
     </g>
    </g>
    <g id="text_8">
     <!-- tid $[s]$ -->
     <defs>
      <path d="M 18.3125 70.21875 
L 18.3125 54.6875 
L 36.8125 54.6875 
L 36.8125 47.703125 
L 18.3125 47.703125 
L 18.3125 18.015625 
Q 18.3125 11.328125 20.140625 9.421875 
Q 21.96875 7.515625 27.59375 7.515625 
L 36.8125 7.515625 
L 36.8125 0 
L 27.59375 0 
Q 17.1875 0 13.234375 3.875 
Q 9.28125 7.765625 9.28125 18.015625 
L 9.28125 47.703125 
L 2.6875 47.703125 
L 2.6875 54.6875 
L 9.28125 54.6875 
L 9.28125 70.21875 
z
" id="DejaVuSans-116"/>
      <path d="M 9.421875 54.6875 
L 18.40625 54.6875 
L 18.40625 0 
L 9.421875 0 
z
M 9.421875 75.984375 
L 18.40625 75.984375 
L 18.40625 64.59375 
L 9.421875 64.59375 
z
" id="DejaVuSans-105"/>
      <path d="M 45.40625 46.390625 
L 45.40625 75.984375 
L 54.390625 75.984375 
L 54.390625 0 
L 45.40625 0 
L 45.40625 8.203125 
Q 42.578125 3.328125 38.25 0.953125 
Q 33.9375 -1.421875 27.875 -1.421875 
Q 17.96875 -1.421875 11.734375 6.484375 
Q 5.515625 14.40625 5.515625 27.296875 
Q 5.515625 40.1875 11.734375 48.09375 
Q 17.96875 56 27.875 56 
Q 33.9375 56 38.25 53.625 
Q 42.578125 51.265625 45.40625 46.390625 
z
M 14.796875 27.296875 
Q 14.796875 17.390625 18.875 11.75 
Q 22.953125 6.109375 30.078125 6.109375 
Q 37.203125 6.109375 41.296875 11.75 
Q 45.40625 17.390625 45.40625 27.296875 
Q 45.40625 37.203125 41.296875 42.84375 
Q 37.203125 48.484375 30.078125 48.484375 
Q 22.953125 48.484375 18.875 42.84375 
Q 14.796875 37.203125 14.796875 27.296875 
z
" id="DejaVuSans-100"/>
      <path id="DejaVuSans-32"/>
      <path d="M 8.59375 75.984375 
L 29.296875 75.984375 
L 29.296875 69 
L 17.578125 69 
L 17.578125 -6.203125 
L 29.296875 -6.203125 
L 29.296875 -13.1875 
L 8.59375 -13.1875 
z
" id="DejaVuSans-91"/>
      <path d="M 50 53.078125 
L 48.296875 44.578125 
Q 44.734375 46.53125 40.765625 47.5 
Q 36.8125 48.484375 32.625 48.484375 
Q 25.53125 48.484375 21.453125 46.0625 
Q 17.390625 43.65625 17.390625 39.5 
Q 17.390625 34.671875 26.859375 32.078125 
Q 27.59375 31.890625 27.9375 31.78125 
L 30.8125 30.90625 
Q 39.796875 28.421875 42.796875 25.6875 
Q 45.796875 22.953125 45.796875 18.21875 
Q 45.796875 9.515625 38.890625 4.046875 
Q 31.984375 -1.421875 20.796875 -1.421875 
Q 16.453125 -1.421875 11.671875 -0.578125 
Q 6.890625 0.25 1.125 2 
L 2.875 11.28125 
Q 7.8125 8.734375 12.59375 7.421875 
Q 17.390625 6.109375 21.78125 6.109375 
Q 28.375 6.109375 32.5 8.9375 
Q 36.625 11.765625 36.625 16.109375 
Q 36.625 20.796875 25.78125 23.6875 
L 24.859375 23.921875 
L 21.78125 24.703125 
Q 14.9375 26.515625 11.765625 29.46875 
Q 8.59375 32.421875 8.59375 37.015625 
Q 8.59375 45.75 15.15625 50.875 
Q 21.734375 56 33.015625 56 
Q 37.453125 56 41.671875 55.265625 
Q 45.90625 54.546875 50 53.078125 
z
" id="DejaVuSans-Oblique-115"/>
      <path d="M 30.421875 75.984375 
L 30.421875 -13.1875 
L 9.71875 -13.1875 
L 9.71875 -6.203125 
L 21.390625 -6.203125 
L 21.390625 69 
L 9.71875 69 
L 9.71875 75.984375 
z
" id="DejaVuSans-93"/>
     </defs>
     <g style="fill:#555555;" transform="translate(277.62 313.29625)scale(0.12 -0.12)">
      <use transform="translate(0 0.015625)" xlink:href="#DejaVuSans-116"/>
      <use transform="translate(39.208984 0.015625)" xlink:href="#DejaVuSans-105"/>
      <use transform="translate(66.992188 0.015625)" xlink:href="#DejaVuSans-100"/>
      <use transform="translate(130.46875 0.015625)" xlink:href="#DejaVuSans-32"/>
      <use transform="translate(162.255859 0.015625)" xlink:href="#DejaVuSans-91"/>
      <use transform="translate(201.269531 0.015625)" xlink:href="#DejaVuSans-Oblique-115"/>
      <use transform="translate(253.369141 0.015625)" xlink:href="#DejaVuSans-93"/>
     </g>
    </g>
   </g>
   <g id="matplotlib.axis_2">
    <g id="ytick_1">
     <g id="line2d_15">
      <path clip-path="url(#pc1f82c93ff)" d="M 72 273.797724 
L 518.4 273.797724 
" style="fill:none;stroke:#ffffff;stroke-linecap:square;stroke-width:0.8;"/>
     </g>
     <g id="line2d_16">
      <defs>
       <path d="M 0 0 
L -3.5 0 
" id="mf5fd54a8f2" style="stroke:#555555;stroke-width:0.8;"/>
      </defs>
      <g>
       <use style="fill:#555555;stroke:#555555;stroke-width:0.8;" x="72" xlink:href="#mf5fd54a8f2" y="273.797724"/>
      </g>
     </g>
     <g id="text_9">
      <!-- −0.6 -->
      <defs>
       <path d="M 10.59375 35.5 
L 73.1875 35.5 
L 73.1875 27.203125 
L 10.59375 27.203125 
z
" id="DejaVuSans-8722"/>
       <path d="M 10.6875 12.40625 
L 21 12.40625 
L 21 0 
L 10.6875 0 
z
" id="DejaVuSans-46"/>
      </defs>
      <g style="fill:#555555;" transform="translate(40.717187 277.596943)scale(0.1 -0.1)">
       <use xlink:href="#DejaVuSans-8722"/>
       <use x="83.789062" xlink:href="#DejaVuSans-48"/>
       <use x="147.412109" xlink:href="#DejaVuSans-46"/>
       <use x="179.199219" xlink:href="#DejaVuSans-54"/>
      </g>
     </g>
    </g>
    <g id="ytick_2">
     <g id="line2d_17">
      <path clip-path="url(#pc1f82c93ff)" d="M 72 237.357887 
L 518.4 237.357887 
" style="fill:none;stroke:#ffffff;stroke-linecap:square;stroke-width:0.8;"/>
     </g>
     <g id="line2d_18">
      <g>
       <use style="fill:#555555;stroke:#555555;stroke-width:0.8;" x="72" xlink:href="#mf5fd54a8f2" y="237.357887"/>
      </g>
     </g>
     <g id="text_10">
      <!-- −0.4 -->
      <g style="fill:#555555;" transform="translate(40.717187 241.157106)scale(0.1 -0.1)">
       <use xlink:href="#DejaVuSans-8722"/>
       <use x="83.789062" xlink:href="#DejaVuSans-48"/>
       <use x="147.412109" xlink:href="#DejaVuSans-46"/>
       <use x="179.199219" xlink:href="#DejaVuSans-52"/>
      </g>
     </g>
    </g>
    <g id="ytick_3">
     <g id="line2d_19">
      <path clip-path="url(#pc1f82c93ff)" d="M 72 200.918051 
L 518.4 200.918051 
" style="fill:none;stroke:#ffffff;stroke-linecap:square;stroke-width:0.8;"/>
     </g>
     <g id="line2d_20">
      <g>
       <use style="fill:#555555;stroke:#555555;stroke-width:0.8;" x="72" xlink:href="#mf5fd54a8f2" y="200.918051"/>
      </g>
     </g>
     <g id="text_11">
      <!-- −0.2 -->
      <g style="fill:#555555;" transform="translate(40.717187 204.717269)scale(0.1 -0.1)">
       <use xlink:href="#DejaVuSans-8722"/>
       <use x="83.789062" xlink:href="#DejaVuSans-48"/>
       <use x="147.412109" xlink:href="#DejaVuSans-46"/>
       <use x="179.199219" xlink:href="#DejaVuSans-50"/>
      </g>
     </g>
    </g>
    <g id="ytick_4">
     <g id="line2d_21">
      <path clip-path="url(#pc1f82c93ff)" d="M 72 164.478214 
L 518.4 164.478214 
" style="fill:none;stroke:#ffffff;stroke-linecap:square;stroke-width:0.8;"/>
     </g>
     <g id="line2d_22">
      <g>
       <use style="fill:#555555;stroke:#555555;stroke-width:0.8;" x="72" xlink:href="#mf5fd54a8f2" y="164.478214"/>
      </g>
     </g>
     <g id="text_12">
      <!-- 0.0 -->
      <g style="fill:#555555;" transform="translate(49.096875 168.277433)scale(0.1 -0.1)">
       <use xlink:href="#DejaVuSans-48"/>
       <use x="63.623047" xlink:href="#DejaVuSans-46"/>
       <use x="95.410156" xlink:href="#DejaVuSans-48"/>
      </g>
     </g>
    </g>
    <g id="ytick_5">
     <g id="line2d_23">
      <path clip-path="url(#pc1f82c93ff)" d="M 72 128.038377 
L 518.4 128.038377 
" style="fill:none;stroke:#ffffff;stroke-linecap:square;stroke-width:0.8;"/>
     </g>
     <g id="line2d_24">
      <g>
       <use style="fill:#555555;stroke:#555555;stroke-width:0.8;" x="72" xlink:href="#mf5fd54a8f2" y="128.038377"/>
      </g>
     </g>
     <g id="text_13">
      <!-- 0.2 -->
      <g style="fill:#555555;" transform="translate(49.096875 131.837596)scale(0.1 -0.1)">
       <use xlink:href="#DejaVuSans-48"/>
       <use x="63.623047" xlink:href="#DejaVuSans-46"/>
       <use x="95.410156" xlink:href="#DejaVuSans-50"/>
      </g>
     </g>
    </g>
    <g id="ytick_6">
     <g id="line2d_25">
      <path clip-path="url(#pc1f82c93ff)" d="M 72 91.598541 
L 518.4 91.598541 
" style="fill:none;stroke:#ffffff;stroke-linecap:square;stroke-width:0.8;"/>
     </g>
     <g id="line2d_26">
      <g>
       <use style="fill:#555555;stroke:#555555;stroke-width:0.8;" x="72" xlink:href="#mf5fd54a8f2" y="91.598541"/>
      </g>
     </g>
     <g id="text_14">
      <!-- 0.4 -->
      <g style="fill:#555555;" transform="translate(49.096875 95.397759)scale(0.1 -0.1)">
       <use xlink:href="#DejaVuSans-48"/>
       <use x="63.623047" xlink:href="#DejaVuSans-46"/>
       <use x="95.410156" xlink:href="#DejaVuSans-52"/>
      </g>
     </g>
    </g>
    <g id="ytick_7">
     <g id="line2d_27">
      <path clip-path="url(#pc1f82c93ff)" d="M 72 55.158704 
L 518.4 55.158704 
" style="fill:none;stroke:#ffffff;stroke-linecap:square;stroke-width:0.8;"/>
     </g>
     <g id="line2d_28">
      <g>
       <use style="fill:#555555;stroke:#555555;stroke-width:0.8;" x="72" xlink:href="#mf5fd54a8f2" y="55.158704"/>
      </g>
     </g>
     <g id="text_15">
      <!-- 0.6 -->
      <g style="fill:#555555;" transform="translate(49.096875 58.957923)scale(0.1 -0.1)">
       <use xlink:href="#DejaVuSans-48"/>
       <use x="63.623047" xlink:href="#DejaVuSans-46"/>
       <use x="95.410156" xlink:href="#DejaVuSans-54"/>
      </g>
     </g>
    </g>
    <g id="text_16">
     <!-- $\theta$ [radianer] -->
     <defs>
      <path d="M 45.515625 34.671875 
L 14.453125 34.671875 
Q 12.359375 20.0625 14.5 13.875 
Q 17.1875 6.25 24.46875 6.25 
Q 31.78125 6.25 37.359375 13.921875 
Q 42.234375 20.65625 45.515625 34.671875 
z
M 47.015625 42.96875 
Q 48.34375 56.84375 46.625 61.71875 
Q 43.953125 69.4375 36.765625 69.4375 
Q 29.296875 69.4375 23.828125 61.8125 
Q 19.53125 55.671875 16.15625 42.96875 
z
M 38.1875 76.765625 
Q 49.90625 76.765625 54.59375 66.40625 
Q 59.28125 56.109375 55.71875 37.84375 
Q 52.203125 19.625 43.453125 9.28125 
Q 34.765625 -1.125 23.046875 -1.125 
Q 11.28125 -1.125 6.640625 9.28125 
Q 2 19.625 5.515625 37.84375 
Q 9.078125 56.109375 17.71875 66.40625 
Q 26.421875 76.765625 38.1875 76.765625 
z
" id="DejaVuSans-Oblique-952"/>
      <path d="M 41.109375 46.296875 
Q 39.59375 47.171875 37.8125 47.578125 
Q 36.03125 48 33.890625 48 
Q 26.265625 48 22.1875 43.046875 
Q 18.109375 38.09375 18.109375 28.8125 
L 18.109375 0 
L 9.078125 0 
L 9.078125 54.6875 
L 18.109375 54.6875 
L 18.109375 46.1875 
Q 20.953125 51.171875 25.484375 53.578125 
Q 30.03125 56 36.53125 56 
Q 37.453125 56 38.578125 55.875 
Q 39.703125 55.765625 41.0625 55.515625 
z
" id="DejaVuSans-114"/>
      <path d="M 34.28125 27.484375 
Q 23.390625 27.484375 19.1875 25 
Q 14.984375 22.515625 14.984375 16.5 
Q 14.984375 11.71875 18.140625 8.90625 
Q 21.296875 6.109375 26.703125 6.109375 
Q 34.1875 6.109375 38.703125 11.40625 
Q 43.21875 16.703125 43.21875 25.484375 
L 43.21875 27.484375 
z
M 52.203125 31.203125 
L 52.203125 0 
L 43.21875 0 
L 43.21875 8.296875 
Q 40.140625 3.328125 35.546875 0.953125 
Q 30.953125 -1.421875 24.3125 -1.421875 
Q 15.921875 -1.421875 10.953125 3.296875 
Q 6 8.015625 6 15.921875 
Q 6 25.140625 12.171875 29.828125 
Q 18.359375 34.515625 30.609375 34.515625 
L 43.21875 34.515625 
L 43.21875 35.40625 
Q 43.21875 41.609375 39.140625 45 
Q 35.0625 48.390625 27.6875 48.390625 
Q 23 48.390625 18.546875 47.265625 
Q 14.109375 46.140625 10.015625 43.890625 
L 10.015625 52.203125 
Q 14.9375 54.109375 19.578125 55.046875 
Q 24.21875 56 28.609375 56 
Q 40.484375 56 46.34375 49.84375 
Q 52.203125 43.703125 52.203125 31.203125 
z
" id="DejaVuSans-97"/>
      <path d="M 54.890625 33.015625 
L 54.890625 0 
L 45.90625 0 
L 45.90625 32.71875 
Q 45.90625 40.484375 42.875 44.328125 
Q 39.84375 48.1875 33.796875 48.1875 
Q 26.515625 48.1875 22.3125 43.546875 
Q 18.109375 38.921875 18.109375 30.90625 
L 18.109375 0 
L 9.078125 0 
L 9.078125 54.6875 
L 18.109375 54.6875 
L 18.109375 46.1875 
Q 21.34375 51.125 25.703125 53.5625 
Q 30.078125 56 35.796875 56 
Q 45.21875 56 50.046875 50.171875 
Q 54.890625 44.34375 54.890625 33.015625 
z
" id="DejaVuSans-110"/>
      <path d="M 56.203125 29.59375 
L 56.203125 25.203125 
L 14.890625 25.203125 
Q 15.484375 15.921875 20.484375 11.0625 
Q 25.484375 6.203125 34.421875 6.203125 
Q 39.59375 6.203125 44.453125 7.46875 
Q 49.3125 8.734375 54.109375 11.28125 
L 54.109375 2.78125 
Q 49.265625 0.734375 44.1875 -0.34375 
Q 39.109375 -1.421875 33.890625 -1.421875 
Q 20.796875 -1.421875 13.15625 6.1875 
Q 5.515625 13.8125 5.515625 26.8125 
Q 5.515625 40.234375 12.765625 48.109375 
Q 20.015625 56 32.328125 56 
Q 43.359375 56 49.78125 48.890625 
Q 56.203125 41.796875 56.203125 29.59375 
z
M 47.21875 32.234375 
Q 47.125 39.59375 43.09375 43.984375 
Q 39.0625 48.390625 32.421875 48.390625 
Q 24.90625 48.390625 20.390625 44.140625 
Q 15.875 39.890625 15.1875 32.171875 
z
" id="DejaVuSans-101"/>
     </defs>
     <g style="fill:#555555;" transform="translate(34.221562 196.71)rotate(-90)scale(0.12 -0.12)">
      <use transform="translate(0 0.234375)" xlink:href="#DejaVuSans-Oblique-952"/>
      <use transform="translate(61.181641 0.234375)" xlink:href="#DejaVuSans-32"/>
      <use transform="translate(92.96875 0.234375)" xlink:href="#DejaVuSans-91"/>
      <use transform="translate(131.982422 0.234375)" xlink:href="#DejaVuSans-114"/>
      <use transform="translate(173.095703 0.234375)" xlink:href="#DejaVuSans-97"/>
      <use transform="translate(234.375 0.234375)" xlink:href="#DejaVuSans-100"/>
      <use transform="translate(297.851562 0.234375)" xlink:href="#DejaVuSans-105"/>
      <use transform="translate(325.634766 0.234375)" xlink:href="#DejaVuSans-97"/>
      <use transform="translate(386.914062 0.234375)" xlink:href="#DejaVuSans-110"/>
      <use transform="translate(450.292969 0.234375)" xlink:href="#DejaVuSans-101"/>
      <use transform="translate(511.816406 0.234375)" xlink:href="#DejaVuSans-114"/>
      <use transform="translate(552.929688 0.234375)" xlink:href="#DejaVuSans-93"/>
     </g>
    </g>
   </g>
   <g id="line2d_29">
    <path clip-path="url(#pc1f82c93ff)" d="M 92.290909 49.999091 
L 92.510729 50.108279 
L 92.774513 50.531432 
L 93.119461 51.562887 
L 93.559101 53.654121 
L 94.103579 57.425768 
L 94.763039 63.682533 
L 95.551009 73.439253 
L 96.497926 88.122173 
L 97.668045 109.966273 
L 99.304858 145.126541 
L 102.71376 219.142657 
L 103.958279 240.898928 
L 104.955924 254.722684 
L 105.784476 263.352362 
L 106.470991 268.381248 
L 107.025614 270.981452 
L 107.455108 272.079737 
L 107.766238 272.372957 
L 107.996204 272.318219 
L 108.249842 271.990878 
L 108.577881 271.154342 
L 109.000612 269.396004 
L 109.524798 266.171545 
L 110.160585 260.760144 
L 110.921501 252.240988 
L 111.834599 239.349452 
L 112.957372 220.127478 
L 114.469058 190.075208 
L 118.523891 107.55711 
L 119.700774 89.009178 
L 120.657836 77.189722 
L 121.45257 69.916531 
L 122.108648 65.775128 
L 122.632835 63.720689 
L 123.035274 62.911575 
L 123.322731 62.74421 
L 123.556079 62.859887 
L 123.830008 63.282401 
L 124.185102 64.288044 
L 124.63827 66.313094 
L 125.196274 69.923239 
L 125.869262 75.852407 
L 126.674141 85.056833 
L 127.644731 98.884151 
L 128.858814 119.590488 
L 130.637665 154.206566 
L 133.532525 210.349573 
L 134.814245 230.799177 
L 135.832181 243.733959 
L 136.674261 251.81761 
L 137.370921 256.552468 
L 137.939071 259.044516 
L 138.378711 260.110368 
L 138.703369 260.410567 
L 138.946862 260.363981 
L 139.207264 260.057039 
L 139.542066 259.274036 
L 139.968179 257.652323 
L 140.499129 254.67127 
L 141.14168 249.688132 
L 141.912741 241.836483 
L 142.839367 229.961557 
L 143.982431 212.249387 
L 145.551607 184.13366 
L 149.27502 116.24986 
L 150.485721 98.796301 
L 151.459693 87.734162 
L 152.267954 80.887049 
L 152.934178 76.959973 
L 153.471892 74.966997 
L 153.887859 74.159322 
L 154.188843 73.976643 
L 154.432336 74.075697 
L 154.713029 74.462974 
L 155.074887 75.390904 
L 155.531436 77.241593 
L 156.092823 80.532501 
L 156.769192 85.923875 
L 157.580835 94.310579 
L 158.56157 106.91779 
L 159.792563 125.821901 
L 161.642432 158.115867 
L 164.34791 204.869142 
L 165.636393 223.287187 
L 166.657711 234.91883 
L 167.49979 242.164449 
L 168.196451 246.407948 
L 168.764601 248.639286 
L 169.207623 249.595735 
L 169.535662 249.857928 
L 169.7893 249.80023 
L 170.066612 249.477952 
L 170.418324 248.68216 
L 170.861346 247.071242 
L 171.409205 244.161738 
L 172.072047 239.337979 
L 172.866781 231.794865 
L 173.823843 220.438575 
L 175.017635 203.433497 
L 176.738995 175.360388 
L 179.813093 125.12195 
L 181.081285 108.193 
L 182.089076 97.505737 
L 182.92101 90.862516 
L 183.610906 86.983175 
L 184.168911 84.975968 
L 184.605169 84.125972 
L 184.929827 83.906233 
L 185.190229 83.984754 
L 185.477686 84.333977 
L 185.842925 85.172385 
L 186.299474 86.833304 
L 186.860861 89.786483 
L 187.540612 94.650648 
L 188.355637 102.212724 
L 189.339754 113.565164 
L 190.580892 130.651883 
L 192.471344 160.180292 
L 195.078747 200.344295 
L 196.370613 216.842829 
L 197.39193 227.231523 
L 198.23401 233.697738 
L 198.93067 237.47765 
L 199.495439 239.448564 
L 199.938461 240.293895 
L 200.269882 240.520099 
L 200.537048 240.449128 
L 200.831268 240.110145 
L 201.199889 239.302326 
L 201.65982 237.705042 
L 202.224589 234.870892 
L 202.907722 230.21226 
L 203.726129 222.984341 
L 204.71701 212.116261 
L 205.971675 195.711896 
L 207.916236 166.931819 
L 210.415421 130.630818 
L 211.707286 115.041358 
L 212.728604 105.226514 
L 213.570683 99.120416 
L 214.267344 95.554648 
L 214.832112 93.699245 
L 215.275134 92.907364 
L 215.609937 92.699183 
L 215.883866 92.778958 
L 216.184851 93.125288 
L 216.560236 93.933929 
L 217.030312 95.527673 
L 217.605226 98.332248 
L 218.298505 102.909519 
L 219.130439 109.997519 
L 220.138229 120.623689 
L 221.423331 136.711655 
L 223.536985 166.463738 
L 225.772385 196.902924 
L 227.054105 211.4427 
L 228.068659 220.597664 
L 228.907357 226.298934 
L 229.600635 229.616266 
L 230.162022 231.332782 
L 230.601662 232.057612 
L 230.936464 232.241695 
L 231.217158 232.150728 
L 231.528288 231.789409 
L 231.9172 230.955746 
L 232.400804 229.336316 
L 232.989245 226.519132 
L 233.696051 221.965806 
L 234.544895 214.945671 
L 235.57974 204.401697 
L 236.912187 188.365046 
L 239.448572 154.439599 
L 241.298442 131.281666 
L 242.526052 118.536586 
L 243.510169 110.473285 
L 244.325194 105.491247 
L 244.998182 102.634258 
L 245.542659 101.190694 
L 245.96539 100.615725 
L 246.290047 100.500192 
L 246.577504 100.634268 
L 246.908925 101.063123 
L 247.32151 102.003507 
L 247.828787 103.766337 
L 248.444283 106.774472 
L 249.184907 111.588038 
L 250.074333 118.935224 
L 251.166669 129.940974 
L 252.620863 147.047537 
L 257.034173 200.498812 
L 258.167091 210.823219 
L 259.090335 217.342367 
L 259.854633 221.280099 
L 260.483656 223.461578 
L 260.987551 224.495755 
L 261.376464 224.853834 
L 261.684212 224.864428 
L 261.988578 224.638365 
L 262.353817 224.05859 
L 262.806985 222.877449 
L 263.361607 220.752417 
L 264.031213 217.231405 
L 264.832711 211.737308 
L 265.799919 203.462306 
L 267.017383 190.986854 
L 268.819907 169.931293 
L 271.640367 137.178325 
L 272.922087 124.914034 
L 273.936641 117.195373 
L 274.771957 112.410735 
L 275.465236 109.618879 
L 276.030004 108.173445 
L 276.473026 107.572262 
L 276.817974 107.431071 
L 277.12234 107.544259 
L 277.463907 107.935515 
L 277.879874 108.785633 
L 278.390533 110.379842 
L 279.009411 113.098309 
L 279.753417 117.443179 
L 280.646224 124.064931 
L 281.745324 133.998278 
L 283.216427 149.502304 
L 287.514754 196.063255 
L 288.6612 205.489081 
L 289.591208 211.426372 
L 290.362269 215.027098 
L 290.994674 217.022409 
L 291.505333 217.981381 
L 291.904391 218.319015 
L 292.229048 218.326132 
L 292.550323 218.097368 
L 292.932472 217.521995 
L 293.399167 216.378729 
L 293.967317 214.349853 
L 294.65045 211.025195 
L 295.472239 205.839638 
L 296.466501 198.045875 
L 297.72793 186.268284 
L 299.72322 165.220456 
L 302.134476 140.365586 
L 303.422959 129.32057 
L 304.440895 122.378666 
L 305.279593 118.071404 
L 305.976253 115.557351 
L 306.544404 114.256957 
L 306.994189 113.71628 
L 307.349283 113.597061 
L 307.670558 113.723114 
L 308.029034 114.124715 
L 308.465292 114.980582 
L 308.996242 116.554611 
L 309.638793 119.212463 
L 310.406472 123.402198 
L 311.333098 129.780089 
L 312.482926 139.356614 
L 314.075775 154.68218 
L 317.670678 189.782993 
L 318.891525 199.265238 
L 319.868878 205.239924 
L 320.67714 208.913652 
L 321.346745 211.014688 
L 321.891222 212.066556 
L 322.324099 212.474492 
L 322.672429 212.525572 
L 323.007232 212.341996 
L 323.392762 211.850003 
L 323.859457 210.858112 
L 324.424225 209.091952 
L 325.103976 206.180284 
L 325.919001 201.639488 
L 326.906501 194.788394 
L 328.154402 184.452684 
L 330.085436 166.327281 
L 332.618439 142.962836 
L 333.906923 133.102015 
L 334.924858 126.905685 
L 335.763556 123.063041 
L 336.460217 120.822529 
L 337.028367 119.666111 
L 337.484916 119.183655 
L 337.853537 119.087 
L 338.195104 119.230955 
L 338.577252 119.656632 
L 339.037183 120.534719 
L 339.595188 122.123654 
L 340.264794 124.75668 
L 341.066291 128.877853 
L 342.033499 135.096556 
L 343.250964 144.481933 
L 345.053488 160.331568 
L 347.880712 185.051102 
L 349.162432 194.279181 
L 350.176985 200.080617 
L 351.015683 203.68138 
L 351.708962 205.763039 
L 352.277112 206.835718 
L 352.733661 207.274956 
L 353.105664 207.352164 
L 353.457376 207.193507 
L 353.853052 206.747693 
L 354.326511 205.847504 
L 354.898043 204.242298 
L 355.584558 201.597639 
L 356.406346 197.479797 
L 357.400609 191.280969 
L 358.662038 181.904117 
L 360.650564 165.192517 
L 363.078729 145.241078 
L 364.367213 136.443786 
L 365.385149 130.919193 
L 366.227228 127.485065 
L 366.923889 125.496936 
L 367.495421 124.47119 
L 367.955352 124.051024 
L 368.3375 123.979017 
L 368.699358 124.142489 
L 369.10518 124.591972 
L 369.588784 125.48958 
L 370.170461 127.076535 
L 370.867121 129.672352 
L 371.702438 133.706331 
L 372.71361 139.761688 
L 374.008857 148.97636 
L 376.180002 166.323821 
L 378.351147 183.028865 
L 379.629485 191.2135 
L 380.640657 196.346653 
L 381.475974 199.524378 
L 382.169252 201.362432 
L 382.737402 202.302078 
L 383.197333 202.68055 
L 383.582864 202.732378 
L 383.954867 202.553202 
L 384.374216 202.083473 
L 384.874729 201.157416 
L 385.473316 199.543097 
L 386.190267 196.919527 
L 387.045874 192.886126 
L 388.090865 186.812003 
L 389.443604 177.529598 
L 394.688847 140.066004 
L 395.730456 134.895038 
L 396.586063 131.686659 
L 397.299633 129.802167 
L 397.888074 128.818328 
L 398.364914 128.408587 
L 398.767354 128.335115 
L 399.149503 128.49596 
L 399.572233 128.933571 
L 400.072747 129.798682 
L 400.671333 131.312889 
L 401.384903 133.766458 
L 402.24051 137.561432 
L 403.282119 143.264674 
L 404.631476 151.995342 
L 407.435026 172.072165 
L 409.139477 183.271816 
L 410.333269 189.732355 
L 411.297095 193.809232 
L 412.09521 196.293606 
L 412.758052 197.693717 
L 413.30253 198.375531 
L 413.752315 198.614605 
L 414.147991 198.581359 
L 414.553813 198.311376 
L 415.017126 197.714497 
L 415.568367 196.612329 
L 416.224445 194.7668 
L 417.009033 191.847516 
L 417.952568 187.41938 
L 419.126069 180.767171 
L 420.786556 169.932133 
L 424.100765 148.123324 
L 425.352048 141.480945 
L 426.349693 137.304249 
L 427.174863 134.734178 
L 427.861378 133.261212 
L 428.429528 132.520005 
L 428.896223 132.241537 
L 429.305427 132.244048 
L 429.718012 132.479221 
L 430.184707 133.023707 
L 430.732566 134.03199 
L 431.385262 135.733972 
L 432.163087 138.428376 
L 433.096476 142.518174 
L 434.25645 148.674028 
L 435.872972 158.581468 
L 439.379947 180.354919 
L 440.614321 186.475255 
L 441.60182 190.32426 
L 442.420227 192.68735 
L 443.10336 194.036082 
L 443.668128 194.703717 
L 444.138205 194.944571 
L 444.554172 194.917909 
L 444.980285 194.658072 
L 445.463889 194.081613 
L 446.032039 193.031023 
L 446.708408 191.276175 
L 447.513287 188.523272 
L 448.480496 184.368798 
L 449.694578 178.100307 
L 451.480193 167.562699 
L 454.375054 150.540982 
L 455.656774 144.355496 
L 456.674709 140.465251 
L 457.516789 138.061881 
L 458.216831 136.679176 
L 458.801891 135.972924 
L 459.288876 135.70398 
L 459.721753 135.709781 
L 460.154629 135.945275 
L 460.641615 136.481449 
L 461.213147 137.468409 
L 461.889516 139.114932 
L 462.691014 141.691486 
L 463.658222 145.601612 
L 464.868923 151.492666 
L 466.637629 161.340471 
L 469.586599 177.725242 
L 470.864937 183.541748 
L 471.879491 187.195517 
L 472.72157 189.45841 
L 473.424994 190.762551 
L 474.010054 191.421159 
L 474.503803 191.669303 
L 474.946825 191.650719 
L 475.396611 191.399348 
L 475.900506 190.843197 
L 476.488947 189.835908 
L 477.182226 188.17642 
L 478.007396 185.583807 
L 479.001659 181.677066 
L 480.259706 175.763883 
L 482.214413 165.346792 
L 484.723743 152.227398 
L 486.01899 146.61649 
L 487.04369 143.099094 
L 487.892533 140.922418 
L 488.602721 139.664468 
L 489.197926 139.024979 
L 489.701821 138.785923 
L 490.154988 138.809218 
L 490.614919 139.062614 
L 491.12896 139.615891 
L 491.727547 140.609794 
L 492.434353 142.245298 
L 493.273051 144.784927 
L 494.287605 148.61516 
L 495.57947 154.429209 
L 497.703269 165.196013 
L 498.109091 167.282811 
L 498.109091 167.282811 
" style="fill:none;stroke:#e24a33;stroke-linecap:square;stroke-width:1.5;"/>
   </g>
   <g id="patch_3">
    <path d="M 72 283.5 
L 72 38.88 
" style="fill:none;stroke:#ffffff;stroke-linecap:square;stroke-linejoin:miter;"/>
   </g>
   <g id="patch_4">
    <path d="M 518.4 283.5 
L 518.4 38.88 
" style="fill:none;stroke:#ffffff;stroke-linecap:square;stroke-linejoin:miter;"/>
   </g>
   <g id="patch_5">
    <path d="M 72 283.5 
L 518.4 283.5 
" style="fill:none;stroke:#ffffff;stroke-linecap:square;stroke-linejoin:miter;"/>
   </g>
   <g id="patch_6">
    <path d="M 72 38.88 
L 518.4 38.88 
" style="fill:none;stroke:#ffffff;stroke-linecap:square;stroke-linejoin:miter;"/>
   </g>
   <g id="text_17">
    <!-- Vinkel -->
    <defs>
     <path d="M 28.609375 0 
L 0.78125 72.90625 
L 11.078125 72.90625 
L 34.1875 11.53125 
L 57.328125 72.90625 
L 67.578125 72.90625 
L 39.796875 0 
z
" id="DejaVuSans-86"/>
     <path d="M 9.078125 75.984375 
L 18.109375 75.984375 
L 18.109375 31.109375 
L 44.921875 54.6875 
L 56.390625 54.6875 
L 27.390625 29.109375 
L 57.625 0 
L 45.90625 0 
L 18.109375 26.703125 
L 18.109375 0 
L 9.078125 0 
z
" id="DejaVuSans-107"/>
     <path d="M 9.421875 75.984375 
L 18.40625 75.984375 
L 18.40625 0 
L 9.421875 0 
z
" id="DejaVuSans-108"/>
    </defs>
    <g transform="translate(273.117375 32.88)scale(0.144 -0.144)">
     <use xlink:href="#DejaVuSans-86"/>
     <use x="68.376953" xlink:href="#DejaVuSans-105"/>
     <use x="96.160156" xlink:href="#DejaVuSans-110"/>
     <use x="159.539062" xlink:href="#DejaVuSans-107"/>
     <use x="217.402344" xlink:href="#DejaVuSans-101"/>
     <use x="278.925781" xlink:href="#DejaVuSans-108"/>
    </g>
   </g>
  </g>
 </g>
 <defs>
  <clipPath id="pc1f82c93ff">
   <rect height="244.62" width="446.4" x="72" y="38.88"/>
  </clipPath>
 </defs>
</svg>
